<?xml version="1.0" standalone="no"?>
<!DOCTYPE svg PUBLIC "-//W3C//DTD SVG 20010904//EN"
 "http://www.w3.org/TR/2001/REC-SVG-20010904/DTD/svg10.dtd">
<svg version="1.0" xmlns="http://www.w3.org/2000/svg"
 width="1366.000000pt" height="685.000000pt" viewBox="0 0 1366.000000 685.000000"
 preserveAspectRatio="xMidYMid meet">
<metadata>
Created by potrace 1.15, written by Peter Selinger 2001-2017
</metadata>
<g transform="translate(0.000000,685.000000) scale(0.100000,-0.100000)"
fill="#000000" stroke="none">
<path d="M7182 3820 c-54 -33 -72 -74 -72 -162 0 -96 7 -114 72 -186 94 -104
161 -196 171 -234 14 -55 1 -121 -29 -149 -36 -33 -89 -31 -120 5 -21 24 -24
37 -24 107 l0 79 -35 0 -35 0 0 -94 c0 -106 17 -143 80 -178 45 -24 129 -20
168 8 43 32 72 99 72 169 0 90 -15 127 -78 199 -31 35 -83 97 -114 138 -56 70
-58 75 -58 131 0 51 4 62 29 88 37 37 72 37 112 1 28 -25 32 -35 37 -100 l5
-72 35 0 35 0 -5 85 c-5 94 -18 122 -78 163 -43 29 -121 30 -168 2z"/>
<path d="M7950 3818 c-18 -13 -43 -36 -54 -51 -20 -27 -21 -41 -23 -336 -2
-301 -2 -309 20 -351 33 -65 66 -85 142 -85 76 0 109 20 142 85 22 43 23 50
20 351 -2 294 -3 309 -23 336 -37 49 -82 73 -139 73 -38 0 -61 -6 -85 -22z
m142 -77 l33 -29 0 -296 0 -296 -27 -27 c-37 -37 -89 -37 -126 0 l-27 27 0
296 0 296 33 29 c18 16 43 29 57 29 14 0 39 -13 57 -29z"/>
<path d="M4570 3823 c0 -4 16 -93 36 -198 19 -104 42 -228 49 -275 8 -47 25
-143 38 -215 l23 -130 41 -3 c49 -4 42 -18 73 163 12 66 22 124 23 129 2 5 13
-51 26 -125 30 -182 25 -171 74 -167 l41 3 23 130 c13 72 30 168 38 215 7 47
30 171 49 275 20 105 36 194 36 198 0 5 -17 7 -37 5 l-37 -3 -28 -155 c-15
-85 -32 -184 -37 -220 -18 -120 -47 -255 -53 -245 -3 6 -8 28 -12 50 -3 22
-13 72 -21 110 -7 39 -29 159 -47 268 l-33 197 -37 0 c-21 0 -38 -1 -38 -3 0
-1 13 -75 29 -162 22 -124 27 -173 21 -215 -10 -68 -39 -220 -47 -240 -6 -16
-36 118 -53 235 -6 39 -23 140 -38 225 l-28 155 -37 3 c-20 2 -37 0 -37 -5z"/>
<path d="M5271 3678 c-13 -84 -27 -182 -31 -218 -5 -36 -22 -150 -39 -255 -17
-104 -31 -193 -31 -197 0 -13 68 -9 73 5 2 7 10 54 17 105 l13 92 78 0 c89 0
77 15 100 -132 l12 -78 33 0 c42 0 42 -4 9 211 -14 90 -39 254 -55 364 -42
283 -31 255 -99 255 l-57 0 -23 -152z m123 -218 c8 -47 17 -106 20 -132 l6
-48 -65 0 c-61 0 -65 1 -65 23 1 27 13 119 34 247 29 179 27 175 42 80 7 -47
20 -123 28 -170z"/>
<path d="M5620 3415 l0 -415 130 0 130 0 0 40 0 40 -95 0 -95 0 -1 148 c-1 81
-1 249 1 375 l2 227 -36 0 -36 0 0 -415z"/>
<path d="M5970 3415 l0 -415 130 0 130 0 0 40 0 40 -95 0 -95 0 -1 148 c-1 81
-1 249 1 375 l2 227 -36 0 -36 0 0 -415z"/>
<path d="M6320 3415 l0 -415 140 0 140 0 0 40 0 40 -105 0 -105 0 0 150 0 150
70 0 70 0 0 35 0 35 -70 0 -70 0 0 155 0 155 100 0 100 0 0 35 0 35 -135 0
-135 0 0 -415z"/>
<path d="M6690 3415 l0 -415 88 0 c122 1 192 36 221 112 6 15 10 142 10 306 0
268 -1 281 -22 323 -34 69 -80 89 -199 89 l-98 0 0 -415z m184 335 c14 -5 35
-24 46 -42 19 -31 20 -51 20 -285 0 -138 -4 -263 -9 -276 -19 -48 -50 -67
-112 -67 l-57 0 -4 168 c-1 92 -1 245 0 340 l4 172 43 0 c24 0 55 -4 69 -10z"/>
<path d="M7500 3795 l0 -35 55 0 55 0 1 -157 c1 -87 0 -258 -1 -380 l-2 -223
36 0 36 0 0 380 0 380 60 0 60 0 0 35 0 35 -150 0 -150 0 0 -35z"/>
<path d="M8311 3415 l0 -415 34 0 35 0 0 190 0 190 56 0 c50 0 59 -3 90 -34
l34 -34 0 -156 0 -156 36 0 35 0 -3 174 -3 175 -33 34 -32 33 24 23 c40 38 48
71 44 184 -3 94 -5 107 -30 139 -41 54 -81 68 -192 68 l-95 0 0 -415z m216
310 l35 -35 -4 -91 c-3 -88 -4 -92 -36 -120 -27 -25 -41 -29 -87 -29 l-55 0 0
155 0 155 56 0 c51 0 59 -3 91 -35z"/>
<path d="M8690 3822 c0 -5 29 -94 65 -198 36 -104 70 -205 75 -224 5 -19 10
-117 10 -217 l0 -183 35 0 35 0 0 205 c0 167 3 213 16 243 23 53 124 354 124
369 0 8 -13 13 -34 13 l-35 0 -52 -160 c-29 -87 -56 -157 -59 -154 -3 3 -28
74 -56 157 l-51 152 -36 3 c-20 2 -37 -1 -37 -6z"/>
</g>
</svg>
